# xmcd
#
# Track frame offsets: 
#        183
#        12835
#        35618
#        63913
#        82243
#        117350
#        143485
#        161133
#        189093
#        215795
#        243075
#        280483
#        305445
#        326368
#
# Disc length: 4398 seconds
#
# Revision: 3
# Processed by: cddbd v1.5.2PL0 Copyright (c) Steve Scherf et al.
# Submitted via: ExactAudioCopy v0.99pb5
#
DISCID=c2112c0e
DTITLE=Marvin Gaye - Here, My Dear
DYEAR=1978
DGENRE=Soul
TTITLE0=Here, My Dear
TTITLE1=I Met a Little Girl
TTITLE2=When Did You Stop Loving Me, When Did I Stop Loving You
TTITLE3=Anger
TTITLE4=Is That Enough
TTITLE5=Everybody Needs Love
TTITLE6=Time to Get it Together
TTITLE7=Sparrow
TTITLE8=Anna's Song
TTITLE9=When Did You Stop Loving Me, When Did I Stop Loving You (Instr
TTITLE9=umental)
TTITLE10=A Funky Space Reincarnation
TTITLE11=You Can Leave, But it's Going to Cost You
TTITLE12=(a) Falling in Love Again
TTITLE13=(b) When Did You Stop Loving Me, When Did I Stop Loving You (
TTITLE13=Reprise)
EXTD=
EXTT0=(Marvin Gaye]\n
EXTT1=(Marvin Gaye]\n
EXTT2=(Marvin Gaye]\n
EXTT3=(Marvin Gaye]\n
EXTT4=(Marvin Gaye]\n
EXTT5=(Marvin Gaye]\n
EXTT6=(Marvin Gaye]\n
EXTT7=(Marvin Gaye]\n
EXTT8=(Marvin Gaye]\n
EXTT9=(Marvin Gaye]\n
EXTT10=(Marvin Gaye]\n
EXTT11=(Marvin Gaye]\n
EXTT12=(Marvin Gaye]\n
EXTT13=(Marvin Gaye]\n
PLAYORDER=
